<?xml version="1.0" encoding="UTF-8"?>
<svg version="1.1" xmlns="http://www.w3.org/2000/svg" width="225" height="225">
<path d="M0 0 C20.89363916 16.04051634 34.05143907 37.95815472 38.625 63.875 C41.90806692 89.50817632 35.29204046 114.98329169 19.5 135.5 C9.22103805 147.73015434 -5.69956237 163.05121681 -22.41796875 165.75390625 C-24.6875 165.3125 -24.6875 165.3125 -26.30395508 163.71337891 C-28.15188385 160.50665021 -28.07230928 158.14800219 -28.09375 154.45703125 C-28.11000427 153.46542244 -28.11000427 153.46542244 -28.12658691 152.45378113 C-28.16075172 150.34408852 -28.17640398 148.23493221 -28.1875 146.125 C-28.25182703 134.04690105 -28.32199158 124.58238771 -36.6875 115.3125 C-36.6875 114.6525 -36.6875 113.9925 -36.6875 113.3125 C-35.47126953 112.98378906 -35.47126953 112.98378906 -34.23046875 112.6484375 C-22.64597047 109.33087455 -10.99351331 104.96113943 -4.41015625 94.23046875 C0.12243404 85.53628311 0.7275191 75.75690126 -1.37109375 66.19921875 C-3.27479074 60.6145143 -5.9347508 56.08531195 -9.61328125 51.48046875 C-11.12849136 48.42249926 -10.34529591 46.65884549 -9.6875 43.3125 C-9.54972415 39.68729566 -9.5930528 36.06473557 -9.625 32.4375 C-9.63176758 30.97570312 -9.63176758 30.97570312 -9.63867188 29.484375 C-9.65039094 27.09368566 -9.66679781 24.7031256 -9.6875 22.3125 C-17.58916923 22.81440665 -17.58916923 22.81440665 -24.9375 25.5625 C-25.77023438 26.00207031 -26.60296875 26.44164062 -27.4609375 26.89453125 C-29.51233014 28.20094446 -30.91331613 29.48990611 -32.5625 31.25 C-36.2659354 33.69426737 -36.92968889 33.41825456 -41.125 32.625 C-42.16527344 32.39941406 -43.20554687 32.17382812 -44.27734375 31.94140625 C-52.60185226 30.40618761 -60.96924445 30.81784686 -69.1875 32.6875 C-74.08467022 33.63027074 -74.08467022 33.63027074 -76.703125 32.25 C-78.4375 30.6875 -78.4375 30.6875 -80.0546875 28.98046875 C-85.14399078 23.78158717 -91.68712668 22.63659136 -98.6875 22.3125 C-100.50403173 26.96511881 -100.93069013 30.83076517 -100.875 35.8125 C-100.86533203 37.71515625 -100.86533203 37.71515625 -100.85546875 39.65625 C-100.78890161 43.26153944 -100.78890161 43.26153944 -100.0078125 46.51953125 C-99.6875 49.3125 -99.6875 49.3125 -100.76171875 51.48046875 C-101.29410156 52.14691406 -101.82648438 52.81335938 -102.375 53.5 C-109.24037607 63.11792778 -110.9271797 72.58027353 -109.6875 84.3125 C-107.8039318 92.58236747 -103.19737729 99.0381017 -96.36328125 104 C-89.34256621 108.40861227 -81.87378128 111.84911166 -73.6875 113.3125 C-73.6875 113.9725 -73.6875 114.6325 -73.6875 115.3125 C-74.409375 115.93125 -75.13125 116.55 -75.875 117.1875 C-79.5307043 120.60501394 -80.80212633 125.15811608 -82.4765625 129.765625 C-82.87617187 130.60609375 -83.27578125 131.4465625 -83.6875 132.3125 C-88.96129092 134.07043031 -93.09592356 133.93776217 -98.1875 131.9375 C-102.27948294 129.34372592 -104.9484872 125.50484931 -107.79296875 121.65234375 C-110.56161158 118.23292714 -113.24105457 115.90535939 -117.6875 115.3125 C-118.3475 115.6425 -119.0075 115.9725 -119.6875 116.3125 C-118.945 116.663125 -118.2025 117.01375 -117.4375 117.375 C-112.61398153 120.77338801 -110.89669824 125.41973711 -109.25 130.875 C-107.82399572 135.2806027 -106.21129176 138.1635797 -102.6875 141.3125 C-96.20801098 144.35624573 -89.74021559 144.717656 -82.6875 144.3125 C-82.63357603 147.08359307 -82.59386545 149.85363818 -82.5625 152.625 C-82.53736328 153.80352539 -82.53736328 153.80352539 -82.51171875 155.00585938 C-82.50527344 155.76318359 -82.49882813 156.52050781 -82.4921875 157.30078125 C-82.48171387 157.99727783 -82.47124023 158.69377441 -82.46044922 159.41137695 C-82.6875 161.3125 -82.6875 161.3125 -84.6875 164.3125 C-90.244115 165.23444957 -94.15586762 162.96988681 -98.875 160.375 C-99.62458984 159.96894531 -100.37417969 159.56289062 -101.14648438 159.14453125 C-107.61573184 155.53999784 -113.24369623 151.34162179 -118.6875 146.3125 C-119.45191406 145.63960937 -120.21632813 144.96671875 -121.00390625 144.2734375 C-137.65605176 128.80866237 -147.98253709 105.63586123 -149.06640625 83.0546875 C-149.41444943 70.2806631 -148.61971455 58.49144229 -144.6875 46.3125 C-144.39875 45.38953125 -144.11 44.4665625 -143.8125 43.515625 C-139.11572459 30.34787965 -129.9065569 17.76512763 -119.6875 8.3125 C-119.15125 7.79429688 -118.615 7.27609375 -118.0625 6.7421875 C-85.57896378 -23.44043157 -35.6938863 -24.41400016 0 0 Z " fill="#FEFEFE" transform="translate(167.6875,35.6875)"/>
<path d="" fill="#000000" transform="translate(0,0)"/>
<path d="" fill="#000000" transform="translate(0,0)"/>
<path d="" fill="#000000" transform="translate(0,0)"/>
<path d="" fill="#000000" transform="translate(0,0)"/>
<path d="" fill="#000000" transform="translate(0,0)"/>
<path d="" fill="#000000" transform="translate(0,0)"/>
<path d="" fill="#000000" transform="translate(0,0)"/>
<path d="" fill="#000000" transform="translate(0,0)"/>
<path d="" fill="#000000" transform="translate(0,0)"/>
<path d="" fill="#000000" transform="translate(0,0)"/>
<path d="" fill="#000000" transform="translate(0,0)"/>
<path d="" fill="#000000" transform="translate(0,0)"/>
<path d="" fill="#000000" transform="translate(0,0)"/>
<path d="" fill="#000000" transform="translate(0,0)"/>
<path d="" fill="#000000" transform="translate(0,0)"/>
<path d="" fill="#000000" transform="translate(0,0)"/>
<path d="" fill="#000000" transform="translate(0,0)"/>
<path d="" fill="#000000" transform="translate(0,0)"/>
<path d="" fill="#000000" transform="translate(0,0)"/>
<path d="" fill="#000000" transform="translate(0,0)"/>
<path d="" fill="#000000" transform="translate(0,0)"/>
<path d="" fill="#000000" transform="translate(0,0)"/>
<path d="" fill="#000000" transform="translate(0,0)"/>
<path d="" fill="#000000" transform="translate(0,0)"/>
<path d="" fill="#000000" transform="translate(0,0)"/>
<path d="" fill="#000000" transform="translate(0,0)"/>
<path d="" fill="#000000" transform="translate(0,0)"/>
<path d="" fill="#000000" transform="translate(0,0)"/>
<path d="" fill="#000000" transform="translate(0,0)"/>
<path d="" fill="#000000" transform="translate(0,0)"/>
<path d="" fill="#000000" transform="translate(0,0)"/>
<path d="" fill="#000000" transform="translate(0,0)"/>
<path d="" fill="#000000" transform="translate(0,0)"/>
<path d="" fill="#000000" transform="translate(0,0)"/>
<path d="" fill="#000000" transform="translate(0,0)"/>
<path d="" fill="#000000" transform="translate(0,0)"/>
<path d="" fill="#000000" transform="translate(0,0)"/>
<path d="" fill="#000000" transform="translate(0,0)"/>
<path d="" fill="#000000" transform="translate(0,0)"/>
<path d="" fill="#000000" transform="translate(0,0)"/>
<path d="" fill="#000000" transform="translate(0,0)"/>
<path d="" fill="#000000" transform="translate(0,0)"/>
<path d="" fill="#000000" transform="translate(0,0)"/>
<path d="" fill="#000000" transform="translate(0,0)"/>
<path d="" fill="#000000" transform="translate(0,0)"/>
<path d="" fill="#000000" transform="translate(0,0)"/>
<path d="" fill="#000000" transform="translate(0,0)"/>
<path d="" fill="#000000" transform="translate(0,0)"/>
<path d="" fill="#000000" transform="translate(0,0)"/>
<path d="" fill="#000000" transform="translate(0,0)"/>
<path d="" fill="#000000" transform="translate(0,0)"/>
<path d="" fill="#000000" transform="translate(0,0)"/>
<path d="" fill="#000000" transform="translate(0,0)"/>
<path d="" fill="#000000" transform="translate(0,0)"/>
<path d="" fill="#000000" transform="translate(0,0)"/>
<path d="" fill="#000000" transform="translate(0,0)"/>
<path d="" fill="#000000" transform="translate(0,0)"/>
<path d="" fill="#000000" transform="translate(0,0)"/>
</svg>
