<?xml version="1.0" encoding="UTF-8"?>
<svg version="1.1" xmlns="http://www.w3.org/2000/svg" width="259" height="194">
<path d="M0 0 C3.0231914 2.65541001 5.86463587 5.46104318 8.6953125 8.3203125 C9.49582031 9.09890625 10.29632813 9.8775 11.12109375 10.6796875 C26.27709925 26.28068798 33.35121354 47.86285603 33.9453125 69.3203125 C33.35772231 90.54268756 26.44800963 110.07843942 12.6953125 126.3203125 C12.18742188 126.97257813 11.67953125 127.62484375 11.15625 128.296875 C-0.70745826 142.96579507 -19.78074428 153.25125682 -38.3046875 156.3203125 C-39.38234375 156.50078125 -40.46 156.68125 -41.5703125 156.8671875 C-65.30096567 159.74663914 -89.18500691 154.38658178 -108.3046875 139.6328125 C-123.29331116 127.06707254 -133.06000702 113.81417393 -139.3046875 95.3203125 C-139.645 94.35609375 -139.9853125 93.391875 -140.3359375 92.3984375 C-145.11106247 76.03921305 -143.90326377 56.29002186 -138.3046875 40.3203125 C-137.94246094 39.26070312 -137.58023438 38.20109375 -137.20703125 37.109375 C-132.69594509 25.21234098 -125.15699039 15.33627141 -116.3046875 6.3203125 C-115.56863281 5.55976562 -114.83257812 4.79921875 -114.07421875 4.015625 C-83.99498896 -25.10630936 -32.02237732 -26.83060653 0 0 Z M-100.3046875 26.3203125 C-107.1393995 34.52196689 -107.76723475 45.05640662 -107.73828125 55.3125 C-107.7435231 56.42029816 -107.74876495 57.52809631 -107.75416565 58.66946411 C-107.76054776 60.99724495 -107.75929873 63.32505821 -107.75073242 65.65283203 C-107.74222611 69.17930567 -107.77103441 72.7041546 -107.80273438 76.23046875 C-108.33271026 96.49906976 -108.33271026 96.49906976 -99.1484375 113.890625 C-92.73344893 118.86495936 -85.84313941 121.41565877 -77.79272461 121.49731445 C-76.68734848 121.51014969 -75.58197235 121.52298492 -74.44309998 121.53620911 C-73.2514473 121.54359604 -72.05979462 121.55098297 -70.83203125 121.55859375 C-68.98189171 121.57070137 -68.98189171 121.57070137 -67.09437561 121.58305359 C-64.48098146 121.59688631 -61.86756931 121.60761209 -59.25415039 121.61547852 C-55.28178219 121.62865286 -51.31003281 121.67653257 -47.33789062 121.72070312 C-44.79427693 121.73083489 -42.25065618 121.73934947 -39.70703125 121.74609375 C-38.52954819 121.76360184 -37.35206512 121.78110992 -36.13890076 121.79914856 C-27.38538115 121.77643428 -18.97113912 120.44652107 -11.8671875 114.9453125 C-3.12136541 105.98617767 -1.83699619 95.40638213 -1.87109375 83.328125 C-1.8658519 82.22032684 -1.86061005 81.11252869 -1.85520935 79.97116089 C-1.84882724 77.64338005 -1.85007627 75.31556679 -1.85864258 72.98779297 C-1.86714889 69.46131933 -1.83834059 65.9364704 -1.80664062 62.41015625 C-1.27666474 42.14155524 -1.27666474 42.14155524 -10.4609375 24.75 C-28.77325834 10.55019189 -83.66529067 9.27507672 -100.3046875 26.3203125 Z " fill="#000000" transform="translate(184.3046875,27.6796875)"/>
<path d="M0 0 C1.0115062 -0.00191345 2.02301239 -0.0038269 3.06517029 -0.00579834 C5.19050345 -0.00715158 7.31584511 -0.00351573 9.44116211 0.00488281 C12.67776177 0.01560568 15.91380787 0.00495218 19.15039062 -0.0078125 C21.22526163 -0.00649097 23.30013229 -0.00392871 25.375 0 C26.81281578 -0.00607269 26.81281578 -0.00607269 28.27967834 -0.01226807 C37.4040175 0.05085208 44.98761481 1.23056223 51.74609375 7.828125 C57.39265042 15.05298633 57.54185175 24.1258167 57.30078125 32.8984375 C57.27179245 34.51345657 57.27179245 34.51345657 57.24221802 36.16110229 C57.1975993 38.42185931 57.14506588 40.68247279 57.08496094 42.94287109 C56.99617096 46.3876296 56.93971851 49.83186893 56.88671875 53.27734375 C56.83916933 55.48441742 56.78975366 57.69145184 56.73828125 59.8984375 C56.71457962 61.42997971 56.71457962 61.42997971 56.69039917 62.99246216 C56.48465147 69.75008251 55.69945082 75.61647483 51.69140625 81.2890625 C44.0253608 88.45785095 35.60257211 88.42206781 25.53515625 88.43359375 C24.51940521 88.43692215 23.50365417 88.44025055 22.4571228 88.44367981 C20.31386771 88.44872966 18.17060479 88.45108874 16.02734375 88.45092773 C12.76418998 88.45311288 9.50137523 88.47128579 6.23828125 88.49023438 C4.14974073 88.49316904 2.06119862 88.49515335 -0.02734375 88.49609375 C-0.99529877 88.50327927 -1.96325378 88.51046478 -2.96054077 88.51786804 C-11.27266624 88.49010127 -18.1550393 87.61415553 -24.87890625 82.265625 C-31.3896148 75.39321042 -31.1869585 68.12439257 -31.1796875 59.1484375 C-31.18397263 57.97731415 -31.18825775 56.8061908 -31.19267273 55.59957886 C-31.19840562 53.12677658 -31.19892398 50.65395745 -31.19458008 48.18115234 C-31.19142317 44.41083803 -31.214883 40.64131098 -31.24023438 36.87109375 C-31.24250786 34.46354265 -31.24321064 32.05598945 -31.2421875 29.6484375 C-31.25139725 28.52736603 -31.26060699 27.40629456 -31.27009583 26.25125122 C-31.22770636 19.02968963 -30.70826931 12.93995622 -26.15234375 7.0234375 C-25.52585937 6.48460937 -24.899375 5.94578125 -24.25390625 5.390625 C-23.64289063 4.83632813 -23.031875 4.28203125 -22.40234375 3.7109375 C-15.61393658 -0.17715949 -7.61800874 -0.03224316 0 0 Z M36.24609375 11.390625 C34.5744575 14.17668542 34.65732751 16.08551362 35.12109375 19.265625 C36.69805007 21.3441858 36.69805007 21.3441858 39.12109375 22.265625 C42.32048071 22.18759117 43.65238919 21.70308259 45.99609375 19.515625 C47.34711942 17.2915134 47.34711942 17.2915134 46.93359375 14.640625 C46.26432824 12.11542135 46.26432824 12.11542135 44.12109375 10.265625 C41.01762121 9.93546835 38.96328199 9.76031206 36.24609375 11.390625 Z M-10.41796875 29.3828125 C-14.52395289 36.37904246 -15.00027096 43.3157874 -13.87890625 51.265625 C-11.2962487 59.73037044 -6.24306403 64.73441349 1.24609375 69.078125 C9.35966611 72.42938315 16.42600784 71.69019314 24.47265625 68.515625 C31.13820247 65.36964448 35.19154935 60.88428773 38.234375 54.171875 C40.51841138 46.68587029 40.29860807 38.913032 37.05859375 31.765625 C32.41812903 23.85868792 25.90393933 19.67077348 17.12109375 17.265625 C6.34831201 15.46403351 -4.13118249 20.73449232 -10.41796875 29.3828125 Z " fill="#000000" transform="translate(116.87890625,52.734375)"/>
<path d="M0 0 C5.02117066 2.84633227 7.68148118 7.07543036 9.37890625 12.515625 C10.35755701 17.74883116 9.27597468 21.95519614 6.75 26.5 C3.1807537 30.84097523 -0.66751812 33.95397116 -6.3515625 34.8203125 C-12.04763967 35.11392473 -16.70116938 34.02806907 -21.25 30.5 C-24.79078316 26.52869978 -27.09315341 21.99496132 -27.44140625 16.64453125 C-26.97949314 11.46921908 -25.25259273 6.48896965 -21.52734375 2.7890625 C-14.94869294 -2.04366187 -7.56751424 -3.25963137 0 0 Z " fill="#000000" transform="translate(138.25,80.5)"/>
<path d="" fill="#FFFFFF" transform="translate(0,0)"/>
<path d="" fill="#FFFFFF" transform="translate(0,0)"/>
<path d="" fill="#FFFFFF" transform="translate(0,0)"/>
<path d="" fill="#FFFFFF" transform="translate(0,0)"/>
<path d="" fill="#FFFFFF" transform="translate(0,0)"/>
<path d="" fill="#FFFFFF" transform="translate(0,0)"/>
<path d="" fill="#FFFFFF" transform="translate(0,0)"/>
<path d="" fill="#FFFFFF" transform="translate(0,0)"/>
<path d="" fill="#FFFFFF" transform="translate(0,0)"/>
<path d="" fill="#FFFFFF" transform="translate(0,0)"/>
<path d="" fill="#FFFFFF" transform="translate(0,0)"/>
<path d="" fill="#FFFFFF" transform="translate(0,0)"/>
<path d="" fill="#FFFFFF" transform="translate(0,0)"/>
<path d="" fill="#FFFFFF" transform="translate(0,0)"/>
<path d="" fill="#FFFFFF" transform="translate(0,0)"/>
<path d="" fill="#FFFFFF" transform="translate(0,0)"/>
<path d="" fill="#FFFFFF" transform="translate(0,0)"/>
<path d="" fill="#FFFFFF" transform="translate(0,0)"/>
<path d="" fill="#FFFFFF" transform="translate(0,0)"/>
<path d="" fill="#FFFFFF" transform="translate(0,0)"/>
<path d="" fill="#FFFFFF" transform="translate(0,0)"/>
<path d="" fill="#FFFFFF" transform="translate(0,0)"/>
<path d="" fill="#FFFFFF" transform="translate(0,0)"/>
<path d="" fill="#FFFFFF" transform="translate(0,0)"/>
<path d="" fill="#FFFFFF" transform="translate(0,0)"/>
<path d="" fill="#FFFFFF" transform="translate(0,0)"/>
<path d="" fill="#FFFFFF" transform="translate(0,0)"/>
<path d="" fill="#FFFFFF" transform="translate(0,0)"/>
<path d="" fill="#FFFFFF" transform="translate(0,0)"/>
<path d="" fill="#FFFFFF" transform="translate(0,0)"/>
<path d="" fill="#FFFFFF" transform="translate(0,0)"/>
<path d="" fill="#FFFFFF" transform="translate(0,0)"/>
<path d="" fill="#FFFFFF" transform="translate(0,0)"/>
<path d="" fill="#FFFFFF" transform="translate(0,0)"/>
<path d="" fill="#FFFFFF" transform="translate(0,0)"/>
<path d="" fill="#FFFFFF" transform="translate(0,0)"/>
<path d="" fill="#FFFFFF" transform="translate(0,0)"/>
<path d="" fill="#FFFFFF" transform="translate(0,0)"/>
<path d="" fill="#FFFFFF" transform="translate(0,0)"/>
<path d="" fill="#FFFFFF" transform="translate(0,0)"/>
<path d="" fill="#FFFFFF" transform="translate(0,0)"/>
<path d="" fill="#FFFFFF" transform="translate(0,0)"/>
<path d="" fill="#FFFFFF" transform="translate(0,0)"/>
<path d="" fill="#FFFFFF" transform="translate(0,0)"/>
<path d="" fill="#FFFFFF" transform="translate(0,0)"/>
<path d="" fill="#FFFFFF" transform="translate(0,0)"/>
<path d="" fill="#FFFFFF" transform="translate(0,0)"/>
<path d="" fill="#FFFFFF" transform="translate(0,0)"/>
<path d="" fill="#FFFFFF" transform="translate(0,0)"/>
<path d="" fill="#FFFFFF" transform="translate(0,0)"/>
</svg>
