<?xml version="1.0" encoding="UTF-8"?>
<svg version="1.1" xmlns="http://www.w3.org/2000/svg" width="256" height="256">
<path d="M0 0 C11.4062698 9.49518649 21.16167168 19.91886015 29.15600586 32.43188477 C30.21754883 34.07737305 30.21754883 34.07737305 31.30053711 35.75610352 C48.05049894 63.33108848 53.06512712 99.06412742 46.07128906 130.53149414 C43.15225959 142.23238104 38.90709008 153.82537698 33.15600586 164.43188477 C32.49600586 164.76188477 31.83600586 165.09188477 31.15600586 165.43188477 C30.48483308 167.09674191 29.81900971 168.76375764 29.15600586 170.43188477 C24.26420304 178.06872801 18.37484319 184.85946806 12.15600586 191.43188477 C11.38514648 192.26719727 10.61428711 193.10250977 9.82006836 193.96313477 C3.59374507 200.49170676 -3.24833028 205.63370171 -10.84399414 210.43188477 C-11.92422852 211.12282227 -13.00446289 211.81375977 -14.11743164 212.52563477 C-42.02401196 229.43871375 -77.4132942 234.44073015 -109.22143555 227.27099609 C-117.00795342 225.30482967 -124.49161267 222.64769639 -131.84399414 219.43188477 C-133.0002832 218.93043945 -134.15657227 218.42899414 -135.34790039 217.91235352 C-157.4986811 207.55516253 -175.68655849 190.93984313 -188.84399414 170.43188477 C-189.4640332 169.50762695 -190.08407227 168.58336914 -190.72290039 167.63110352 C-207.91545325 140.43840805 -212.61741268 104.47921708 -205.87915039 73.29516602 C-199.45887244 49.33420416 -189.06539685 29.4193641 -171.84399414 11.43188477 C-171.16079102 10.68551758 -170.47758789 9.93915039 -169.77368164 9.17016602 C-163.51121611 2.54951518 -156.40051152 -2.54774859 -148.84399414 -7.56811523 C-147.91071289 -8.19717773 -146.97743164 -8.82624023 -146.01586914 -9.47436523 C-101.93861278 -37.18006923 -40.21234846 -32.29666674 0 0 Z M-147.28149414 35.18188477 C-149.85473703 40.53422998 -150.43597076 44.37737767 -148.78149414 50.11938477 C-146.25377753 54.44096478 -143.38374146 57.1620111 -138.84399414 59.43188477 C-131.43647918 60.11755762 -125.7827171 60.13337378 -119.84399414 55.43188477 C-116.58129844 51.91821247 -115.56461108 49.18427396 -115.34399414 44.49438477 C-115.57647243 39.66319523 -116.48044959 36.00387433 -119.84399414 32.43188477 C-124.34269667 29.00962122 -128.99079946 27.75814411 -134.60571289 28.04907227 C-139.9814582 28.9684842 -143.68296799 31.1220091 -147.28149414 35.18188477 Z M-64.84399414 81.43188477 C-65.83399414 82.75188477 -66.82399414 84.07188477 -67.84399414 85.43188477 C-68.17399414 81.47188477 -68.50399414 77.51188477 -68.84399414 73.43188477 C-78.74399414 73.43188477 -88.64399414 73.43188477 -98.84399414 73.43188477 C-98.84399414 104.12188477 -98.84399414 134.81188477 -98.84399414 166.43188477 C-88.94399414 166.43188477 -79.04399414 166.43188477 -68.84399414 166.43188477 C-68.82272461 160.18250977 -68.82272461 160.18250977 -68.80102539 153.80688477 C-68.77574931 150.46755829 -68.74551704 147.12835778 -68.71195221 143.78910828 C-68.67796674 140.27362537 -68.65254733 136.75857549 -68.6484375 133.24291992 C-68.64330762 129.20122393 -68.59809783 125.16081157 -68.55102539 121.11938477 C-68.55495804 119.87012207 -68.55889069 118.62085938 -68.5629425 117.33374023 C-68.44353763 110.15708168 -67.78200533 104.88734354 -62.84399414 99.43188477 C-57.79620164 95.58594762 -51.94629574 95.63277384 -45.84399414 96.43188477 C-41.65800851 98.30062835 -40.2577017 99.69006432 -38.03149414 103.68188477 C-35.58010778 111.42310485 -35.65286378 119.31670035 -35.52758789 127.36938477 C-35.50680679 128.49006348 -35.4860257 129.61074219 -35.46461487 130.76538086 C-35.39959405 134.32082396 -35.34045646 137.87633655 -35.28149414 141.43188477 C-35.23826372 143.85246467 -35.19464803 146.27303772 -35.15063477 148.69360352 C-35.04324183 154.60629398 -34.94381583 160.51904231 -34.84399414 166.43188477 C-24.94399414 166.43188477 -15.04399414 166.43188477 -4.84399414 166.43188477 C-4.78074709 158.98747257 -4.72068315 151.54405704 -4.68874359 144.09960938 C-4.67302753 140.63147253 -4.65209639 137.16356257 -4.61767578 133.69555664 C-4.57826407 129.69879198 -4.56418009 125.70226031 -4.55102539 121.70532227 C-4.53554153 120.48702728 -4.52005768 119.2687323 -4.50410461 118.01351929 C-4.50197116 106.90185173 -5.59446089 94.94577902 -11.84399414 85.43188477 C-12.22942383 84.82989258 -12.61485352 84.22790039 -13.01196289 83.60766602 C-17.75144077 77.20033669 -26.0213535 72.81413777 -33.84399414 71.43188477 C-45.79643471 70.43174914 -56.46622184 72.32561053 -64.84399414 81.43188477 Z M-147.84399414 73.43188477 C-147.84399414 104.12188477 -147.84399414 134.81188477 -147.84399414 166.43188477 C-137.94399414 166.43188477 -128.04399414 166.43188477 -117.84399414 166.43188477 C-117.84399414 135.74188477 -117.84399414 105.05188477 -117.84399414 73.43188477 C-127.74399414 73.43188477 -137.64399414 73.43188477 -147.84399414 73.43188477 Z " fill="#000000" transform="translate(207.843994140625,26.568115234375)"/>
<path d="" fill="#FFFFFF" transform="translate(0,0)"/>
<path d="" fill="#FFFFFF" transform="translate(0,0)"/>
<path d="" fill="#FFFFFF" transform="translate(0,0)"/>
<path d="" fill="#FFFFFF" transform="translate(0,0)"/>
<path d="" fill="#FFFFFF" transform="translate(0,0)"/>
<path d="" fill="#FFFFFF" transform="translate(0,0)"/>
<path d="" fill="#FFFFFF" transform="translate(0,0)"/>
<path d="" fill="#FFFFFF" transform="translate(0,0)"/>
<path d="" fill="#FFFFFF" transform="translate(0,0)"/>
<path d="" fill="#FFFFFF" transform="translate(0,0)"/>
<path d="" fill="#FFFFFF" transform="translate(0,0)"/>
<path d="" fill="#FFFFFF" transform="translate(0,0)"/>
<path d="" fill="#FFFFFF" transform="translate(0,0)"/>
<path d="" fill="#FFFFFF" transform="translate(0,0)"/>
<path d="" fill="#FFFFFF" transform="translate(0,0)"/>
<path d="" fill="#FFFFFF" transform="translate(0,0)"/>
<path d="" fill="#FFFFFF" transform="translate(0,0)"/>
<path d="" fill="#FFFFFF" transform="translate(0,0)"/>
<path d="" fill="#FFFFFF" transform="translate(0,0)"/>
<path d="" fill="#FFFFFF" transform="translate(0,0)"/>
<path d="" fill="#FFFFFF" transform="translate(0,0)"/>
<path d="" fill="#FFFFFF" transform="translate(0,0)"/>
<path d="" fill="#FFFFFF" transform="translate(0,0)"/>
<path d="" fill="#FFFFFF" transform="translate(0,0)"/>
<path d="" fill="#FFFFFF" transform="translate(0,0)"/>
<path d="" fill="#FFFFFF" transform="translate(0,0)"/>
<path d="" fill="#FFFFFF" transform="translate(0,0)"/>
<path d="" fill="#FFFFFF" transform="translate(0,0)"/>
<path d="" fill="#FFFFFF" transform="translate(0,0)"/>
<path d="" fill="#FFFFFF" transform="translate(0,0)"/>
</svg>
